<svg xmlns="http://www.w3.org/2000/svg" viewBox="0 0 1677.42 428.26"><g id="Calque_2" data-name="Calque 2"><g id="logo-dark"><polygon points="59.48 291.46 107.07 291.46 107.07 101.12 166.55 101.12 166.55 53.53 0 53.53 0 101.12 59.48 101.12 59.48 291.46" style="fill:#fff"/><path d="M136.86,214.13a77.33,77.33,0,1,0,77.33-77.32A77.33,77.33,0,0,0,136.86,214.13Zm77.33-29.74a29.74,29.74,0,1,1-29.74,29.74A29.75,29.75,0,0,1,214.19,184.39Z" style="fill:#fff"/><path d="M404.53,220.08a23.8,23.8,0,0,1-47.59,0V136.51H309.36v83.57a71.38,71.38,0,1,0,142.75,0V136.51H404.53Z" style="fill:#fff"/><rect x="797.1" y="136.81" width="47.58" height="154.65" style="fill:#fff"/><circle cx="820.9" cy="83.27" r="29.74" transform="translate(429.82 809.82) rotate(-67.5)" style="fill:#fff"/><path d="M767.36,291.46V208.18a71.43,71.43,0,0,0-95.17-67.31V53.53H624.61V291.46h47.58V208.18a23.8,23.8,0,0,1,47.59,0v83.28Z" style="fill:#fff"/><path d="M602,268.81l-33.65-33.65a29.74,29.74,0,1,1,0-42.06L602,159.45a77.33,77.33,0,1,0,0,109.36Z" style="fill:#fff"/><path d="M1463.29,136.81a77.33,77.33,0,1,0,77.33,77.32A77.32,77.32,0,0,0,1463.29,136.81Zm0,107.06A29.74,29.74,0,1,1,1493,214.13,29.74,29.74,0,0,1,1463.29,243.87Z" style="fill:#ffa76c"/><path d="M1463.29,327.15a29.75,29.75,0,0,1-29.74-29.74H1386a77.33,77.33,0,0,0,154.65,0H1493A29.74,29.74,0,0,1,1463.29,327.15Z" style="fill:#99b4ff"/><path d="M1463.29,428.26a77.35,77.35,0,0,0,71.4-47.58H1391.9A77.34,77.34,0,0,0,1463.29,428.26Z" style="fill:#5236dd"/><path d="M1463.29,53.53A77.33,77.33,0,0,0,1386,130.86h47.58a29.74,29.74,0,1,1,59.48,0h47.59A77.33,77.33,0,0,0,1463.29,53.53Z" style="fill:#99b4ff"/><path d="M1463.29,0a77.34,77.34,0,0,0-71.39,47.58h142.79A77.35,77.35,0,0,0,1463.29,0Z" style="fill:#5236dd"/><path d="M1546.57,136.81v47.58a29.74,29.74,0,1,1,0,59.48v47.59a77.33,77.33,0,0,0,0-154.65Z" style="fill:#99b4ff"/><path d="M1629.84,142.74V285.53a77.36,77.36,0,0,0,0-142.79Z" style="fill:#5236dd"/><path d="M1302.69,214.13A77.33,77.33,0,0,0,1380,291.46V243.87a29.74,29.74,0,0,1,0-59.48V136.81A77.33,77.33,0,0,0,1302.69,214.13Z" style="fill:#99b4ff"/><path d="M1249.16,214.13a77.35,77.35,0,0,0,47.59,71.4V142.74A77.33,77.33,0,0,0,1249.16,214.13Z" style="fill:#5236dd"/><path d="M1076.66,220.08a23.79,23.79,0,0,1-47.58,0V136.81H933.91v-11.9a23.79,23.79,0,0,1,40.62-16.82l33.64-33.65a71.37,71.37,0,0,0-121.84,50.47v11.9H868.48v47.58h17.85V291.46h47.58V184.39h47.58v35.69h0v5.1h.19a71.4,71.4,0,0,0,95,62.21v16a23.79,23.79,0,1,1-47.58,0H981.49a71.38,71.38,0,0,0,142.76,0V136.81h-47.59Z" style="fill:#fff"/><rect x="1183.73" y="53.53" width="5.95" height="321.2" style="fill:#fff"/></g></g></svg>